<?xml version="1.0" encoding="UTF-8"?> <svg xmlns="http://www.w3.org/2000/svg" viewBox="0 0 180 47.86"><g data-name="Layer 2"><path d="M127.39 30.65h-4.52l13.28-26.11h5.21l13.29 26.11h-4.58l-3.49-6.86h-15.69l-3.5 6.86zm17.54-10.1l-6.2-12.19-6.2 12.19zM106.67 3.86l3.09-3.57h6.89l-10 3.57zm-8.84 26.85h23.35v-3h-19.32v-9h14.34v-3.05h-14.34V7.47h19.2v-2.9H97.83v26.14zM66.1 4.54h17.2c4.59 0 8.34 3.41 8.34 7.58A7.82 7.82 0 0 1 85 19.53l8.1 11.12h-4.74l-8-11H69.73v11H66.1V4.54zm17.39 3.11h.24l.24.05h.23l.23.07.22.08.21.09.21.11.2.11.19.12.19.13.18.14.17.14.17.15.15.16.15.17.14.17.12.17.12.18.15.31.1.19.09.19.08.19.07.19.06.19.06.2V13.18l-.06.2-.06.19-.07.19-.08.19-.09.19-.1.19-.11.18-.12.18-.12.17-.14.18-.15.16-.15.16-.17.15-.17.15-.18.13-.19.13-.19.12-.2.12-.21.1-.21.09-.22.08-.23.07-.23.06H69.92v-9h13.57zM43.75 3a13.35 13.35 0 1 0 13.36 13.36A13.35 13.35 0 0 0 43.75 3zm0-3C33.94 0 26 7.33 26 16.36s8 16.36 17.78 16.36 17.78-7.33 17.78-16.36S53.57 0 43.75 0zM0 30.71V4.57h3.33v23.28h19.76v2.86zm156.58 0H180v-3h-19.75V4.57h-3.67v26.14zm-84.09 17h-2l5.84-10.16h2.29l5.84 10.16h-2L80.92 45H74l-1.54 2.68zm7.71-3.94L77.47 39l-2.72 4.74zm8-6.22h7.23A3.26 3.26 0 0 1 99 40.47a3.13 3.13 0 0 1-2.78 2.89l3.4 4.33h-2l-3.34-4.27h-4.1v4.27h-1.93V37.53zm7.31 1.2H96.34l.08.05h.07l.07.06.07.06.07.06.06.07.06.06V41.21l-.06.07-.06.06-.07.06-.07.06-.07.06-.07.05h-.16l-.09.05h-5.93v-3.5h5.32zM59 37.53h7.23a3.27 3.27 0 0 1 3.5 2.94 2.87 2.87 0 0 1-1.55 2.45 4.3 4.3 0 0 1-2 .49h-5.25v4.27H59V37.53zm7.31 1.2H67.14l.07.05h.08l.07.06.07.06.07.06.06.07.06.06V41.19l-.06.07-.06.06-.07.06-.07.06-.07.06-.08.05h-.16L67 42h-6v-3.5h5.32zm44.22 5.69l1.75-.11a2.31 2.31 0 0 0 .58 1.25 3.19 3.19 0 0 0 1.41.79 7.23 7.23 0 0 0 2.16.3 7.08 7.08 0 0 0 1.88-.22 2.9 2.9 0 0 0 1.22-.63 1.25 1.25 0 0 0 .4-.87 1.11 1.11 0 0 0-.39-.84 3.08 3.08 0 0 0-1.26-.6c-.38-.1-1.22-.27-2.51-.49a16.52 16.52 0 0 1-2.71-.64 3.77 3.77 0 0 1-1.51-.94 1.93 1.93 0 0 1-.49-1.27 2.06 2.06 0 0 1 .61-1.43 3.72 3.72 0 0 1 1.76-1 9 9 0 0 1 2.58-.35 9.27 9.27 0 0 1 2.76.37 4 4 0 0 1 1.84 1.07 2.55 2.55 0 0 1 .69 1.6l-1.79.09a1.93 1.93 0 0 0-1-1.45 4.88 4.88 0 0 0-2.45-.49 5.06 5.06 0 0 0-2.46.45 1.26 1.26 0 0 0-.78 1.07 1 1 0 0 0 .55.9 9.18 9.18 0 0 0 2.81.73 26 26 0 0 1 3.11.64 4.34 4.34 0 0 1 1.81 1 2.07 2.07 0 0 1 .59 1.45 2.26 2.26 0 0 1-.64 1.52 4.25 4.25 0 0 1-1.85 1.12 8.48 8.48 0 0 1-2.71.4 10.85 10.85 0 0 1-3.2-.4 4.45 4.45 0 0 1-2-1.21 2.79 2.79 0 0 1-.77-1.83zm-6.29 3.27v-7.18h1.88v7.18zm0-8.26v-1.9h1.88v1.9zm-88-25.7h3.08l4.62-9h-3.88l-3.78 9z" fill="#fff" fill-rule="evenodd" data-name="Isolation Mode"></path></g></svg> 