<?xml version="1.0" encoding="UTF-8"?> <svg xmlns="http://www.w3.org/2000/svg" viewBox="0 0 117.44 140"><defs><style>.cls-1{fill:#fff}</style></defs><g id="Layer_2" data-name="Layer 2"><g id="Isolation_Mode" data-name="Isolation Mode"><path class="cls-1" d="M58.71 140s-32.85-14.16-43-22.48C5.11 108.82 0 96.61 0 82.48v-69.6C25.93-1.08 58.71 0 58.71 0s32.8-1.1 58.73 12.86v69.6c0 14.13-5.11 26.34-15.72 35-10.15 8.32-43 22.48-43 22.48m-54-57.52c0 13.06 4.85 23.92 14 31.43 8.22 6.74 33.12 17.94 40.05 21 6.94-3.06 31.84-14.26 40.05-21 9.17-7.51 14-18.37 14-31.43V13.88C78.12 10.66 37.11 12.63 4.66 42.4z"></path><path class="cls-1" d="M25.39 94.84c6.34 0 11.65-1.47 15.61-4.16V45.76H30.66v39a8.72 8.72 0 0 1-4.9 1.27c-4.75 0-5.46-4.35-5.46-7.29v-33H10v32.57c0 11 5.2 16.53 15.44 16.53M56.67 94.08a16.6 16.6 0 0 0 4.66.59c11.5 0 18.1-10.36 18.1-25.49s-6.8-24.47-19.16-24.47c-5.65 0-10.2 1.26-14 3.68v67.5h10.4zm0-40.29a9.13 9.13 0 0 1 3.67-.74c6 0 8.5 4.8 8.5 16.4 0 11.32-2.84 16.79-8.84 16.79a9.72 9.72 0 0 1-3.36-.63zM91.86 72.84c4.56 2.68 6.4 4.45 6.47 7.69.09 3.62-2.41 5.79-6.21 5.78-3.3 0-7.25-1.86-9.9-4.22v9.54a22.7 22.7 0 0 0 11.38 3.21c10.24 0 14.81-7.23 15-13.85.19-6-1.48-10.61-10.13-15.7-3.87-2.26-6.92-3.75-6.82-7.52s3.16-5 6.09-5a13.85 13.85 0 0 1 9.26 4.31v-9a17.67 17.67 0 0 0-11.36-3.36c-6.81.2-13.94 5.12-13.89 13.49 0 5.51 1.54 9.63 10.08 14.64M100.15 129.74v6.76h1.23v-2.82h.17l1.83 2.82h1.48l-2-3a1.79 1.79 0 0 0 1.5-1.79 2 2 0 0 0-2.25-2zm1.78 1c1 0 1.17.5 1.17 1 0 .63-.27 1.06-1.57 1.06h-.15v-2z"></path><path class="cls-1" d="M106.7 133.14a4.58 4.58 0 1 1-4.58-4.59 4.57 4.57 0 0 1 4.58 4.59m-4.58-5.57a5.56 5.56 0 1 0 5.56 5.57 5.57 5.57 0 0 0-5.56-5.57"></path></g></g></svg> 